<svg xmlns="http://www.w3.org/2000/svg" xmlns:xlink="http://www.w3.org/1999/xlink" viewBox="0 0 437.55 437.78"><defs><style>.cls-1,.cls-3{isolation:isolate;}.cls-2{fill:url(#linear-gradient);}.cls-3{fill:#e94e2b;mix-blend-mode:darken;}</style><linearGradient id="linear-gradient" y1="218.89" x2="437.55" y2="218.89" gradientUnits="userSpaceOnUse"><stop offset="0" stop-color="#fb5820"/><stop offset="0.44" stop-color="#f9713c"/><stop offset="1" stop-color="#f79665"/></linearGradient></defs><title>Asset 1</title><g class="cls-1"><g id="Layer_2" data-name="Layer 2"><g id="Layer_1-2" data-name="Layer 1"><path class="cls-2" d="M112.22,206.47c28.75,0,57.51-.19,86.25.15,6.57.08,8,8.14,8-8.29-.21-56.61-.12-113.23-.1-169.84,0-13.78,5-22.29,15.7-26.51C234-2.67,243.43,1.23,252,9.86q87.37,87.62,175,175c14.13,14.12,14.07,28.44-.14,42.67q-99.14,99.29-198.3,198.57c-15.45,15.46-29.3,15.55-44.63.23Q96.17,338.65,8.47,250.88C-6.25,236.13-1,212.8,18.1,207.31c3-.88,6.12-.79,9.2-.79q42.47,0,84.92,0Z"/><polygon class="cls-3" points="181.23 206.8 206.44 206.8 206.44 417.79 181.23 206.8"/></g></g></g></svg>